<svg xmlns="http://www.w3.org/2000/svg">
  <symbol id="flag" viewBox="0 0 16 16"><path d="M4 14.5V2"/><path d="M4 2.6h7.5L9.6 5l1.9 2.4H4"/></symbol>
  <symbol id="trending" viewBox="0 0 16 16"><path d="M2.5 10.5l3.5-3.5 2.5 2.5 4.5-5"/><path d="M11 4h2.5v2.5"/></symbol>
  <symbol id="bug" viewBox="0 0 16 16"><rect x="5.5" y="5.5" width="5" height="6.5" rx="2.5"/><path d="M8 5.5V3.4M6.4 3.6 5.4 2.6M9.6 3.6l1-1M5.5 7.6H3.2M10.5 7.6h2.3M5.4 10H3.2M10.6 10h2.2"/></symbol>
  <symbol id="confluence" viewBox="0 0 16 16"><circle cx="3.8" cy="3.6" r="1.5"/><circle cx="12.2" cy="3.6" r="1.5"/><circle cx="8" cy="12.4" r="1.5"/><path d="M4.4 5q.6 4 3.6 5.4M11.6 5q-.6 4-3.6 5.4"/></symbol>
  <symbol id="gitbranch" viewBox="0 0 16 16"><circle cx="5" cy="3.6" r="1.5"/><circle cx="5" cy="12.4" r="1.5"/><circle cx="11.5" cy="3.6" r="1.5"/><path d="M5 5.1v5.8M11.5 5.1c0 3.2-3 3.6-5 4.7"/></symbol>
  <symbol id="target" viewBox="0 0 16 16"><circle cx="8" cy="8" r="5.4"/><circle cx="8" cy="8" r="2.3"/><circle cx="8" cy="8" r=".5" fill="currentColor" stroke="none"/></symbol>
  <symbol id="dot" viewBox="0 0 16 16"><circle cx="8" cy="8" r="2.2" fill="currentColor" stroke="none"/></symbol>
  <symbol id="search" viewBox="0 0 16 16"><circle cx="7" cy="7" r="4"/><path d="M10.1 10.1l3.4 3.4"/></symbol>
  <symbol id="doc" viewBox="0 0 16 16"><path d="M4.4 2.2h4.9L12 4.9v8.9H4.4ZM9.3 2.2v2.7H12M6.2 8.3h3.6M6.2 10.5h3.6"/></symbol>
  <symbol id="alert" viewBox="0 0 16 16"><path d="M8 2.6 14 13.4H2ZM8 6.4v3.3"/><circle cx="8" cy="11.5" r=".6" fill="currentColor" stroke="none"/></symbol>
  <symbol id="gear" viewBox="0 0 16 16"><circle cx="8" cy="8" r="2.4"/><path d="M8 2.3v1.6M8 12.1v1.6M2.3 8h1.6M12.1 8h1.6M4 4l1.1 1.1M10.9 10.9l1.1 1.1M12 4l-1.1 1.1M5.1 10.9 4 12"/></symbol>
  <symbol id="user" viewBox="0 0 16 16"><circle cx="8" cy="5.3" r="2.5"/><path d="M3.6 13.4a4.4 4.4 0 0 1 8.8 0"/></symbol>
  <symbol id="bot" viewBox="0 0 16 16"><rect x="3.6" y="5.6" width="8.8" height="6.8" rx="2"/><path d="M8 5.6V3.4"/><circle cx="8" cy="3" r=".6" fill="currentColor" stroke="none"/><circle cx="6.2" cy="9" r=".7" fill="currentColor" stroke="none"/><circle cx="9.8" cy="9" r=".7" fill="currentColor" stroke="none"/></symbol>
  <symbol id="bolt" viewBox="0 0 16 16"><path d="M8.6 2 4.4 8.7H7l-.7 5.3L11.6 7H8.4Z"/></symbol>
  <symbol id="star" viewBox="0 0 16 16"><path d="M8 2.4l1.7 3.5 3.8.6-2.8 2.7.7 3.8L8 11.4l-3.4 1.8.7-3.8-2.8-2.7 3.8-.6Z"/></symbol>
  <symbol id="pause" viewBox="0 0 16 16"><path d="M6 3.5v9M10 3.5v9"/></symbol>
  <symbol id="play" viewBox="0 0 16 16"><path d="M5.2 3.2 12.5 8l-7.3 4.8Z"/></symbol>
  <symbol id="stop" viewBox="0 0 16 16"><rect x="4.3" y="4.3" width="7.4" height="7.4" rx="1"/></symbol>
  <symbol id="replay" viewBox="0 0 16 16"><path d="M12.7 8a4.7 4.7 0 1 0-1.4 3.35M12.9 3.4v2.7h-2.7"/></symbol>
  <symbol id="sliders" viewBox="0 0 16 16"><path d="M2.5 4.5h11M2.5 8h11M2.5 11.5h11"/><circle cx="6" cy="4.5" r="1.5" fill="currentColor" stroke="none"/><circle cx="10.5" cy="8" r="1.5" fill="currentColor" stroke="none"/><circle cx="4.6" cy="11.5" r="1.5" fill="currentColor" stroke="none"/></symbol>
  <symbol id="chevron-up" viewBox="0 0 16 16"><path d="M3.5 9.5 8 5l4.5 4.5"/></symbol>
  <symbol id="chevron-down" viewBox="0 0 16 16"><path d="M3.5 6.5 8 11l4.5-4.5"/></symbol>
  <symbol id="chat" viewBox="0 0 16 16"><path d="M3 3.8h10v6.4H6.5L4 12.4V10.2H3Z"/></symbol>
  <symbol id="bell" viewBox="0 0 16 16"><path d="M3.4 11.5h9.2c-1-1.1-1.4-2.2-1.4-4V6.4a3.2 3.2 0 0 0-6.4 0v1.1c0 1.8-.4 2.9-1.4 4ZM6.5 13.1a1.7 1.7 0 0 0 3 0"/></symbol>
  <symbol id="folder" viewBox="0 0 16 16"><path d="M2.4 4.4h3.3l1.3 1.6h6.6v6.6H2.4Z"/></symbol>
  <symbol id="clip" viewBox="0 0 16 16"><path d="M11.7 5.3 6.1 10.9a1.8 1.8 0 0 1-2.6-2.6l5.9-5.9a3 3 0 0 1 4.2 4.2l-5.9 5.9a4.2 4.2 0 0 1-5.9-5.9l5.2-5.2"/></symbol>
  <symbol id="map" viewBox="0 0 16 16"><path d="M8 14s4.1-4 4.1-7A4.1 4.1 0 0 0 8 2.9 4.1 4.1 0 0 0 3.9 7c0 3 4.1 7 4.1 7Z"/><circle cx="8" cy="6.9" r="1.5"/></symbol>
  <symbol id="compass" viewBox="0 0 16 16"><circle cx="8" cy="8" r="5.6"/><path d="M10.5 5.5 8.7 8.7 5.5 10.5 7.3 7.3Z"/></symbol>
  <symbol id="bulb" viewBox="0 0 16 16"><path d="M5.7 9.5a3.4 3.4 0 1 1 4.6 0c-.5.5-.8 1-.8 1.6H6.5c0-.6-.3-1.1-.8-1.6ZM6.5 12.5h3M7 13.8h2"/></symbol>
  <symbol id="check" viewBox="0 0 16 16"><path d="M3.5 8.4 6.4 11.3 12.5 4.7"/></symbol>
  <symbol id="cross" viewBox="0 0 16 16"><path d="M4.6 4.6l6.8 6.8M11.4 4.6l-6.8 6.8"/></symbol>
  <symbol id="pencil" viewBox="0 0 16 16"><path d="M11.2 2.8 13.2 4.8 5.6 12.4 3 13l.6-2.6ZM10 4l2 2"/></symbol>
  <symbol id="link" viewBox="0 0 16 16"><path d="M6.4 9.6 9.6 6.4M8.4 4.6 9.8 3.2a2.4 2.4 0 0 1 3.4 3.4l-1.4 1.4M7.6 11.4 6.2 12.8a2.4 2.4 0 0 1-3.4-3.4l1.4-1.4"/></symbol>
  <symbol id="download" viewBox="0 0 16 16"><path d="M8 2.6v7.2M5 7l3 3 3-3M3.4 13.2h9.2"/></symbol>
  <symbol id="printer" viewBox="0 0 16 16"><path d="M5 6.2V2.8h6v3.4"/><rect x="3" y="6.2" width="10" height="5" rx="1"/><path d="M5 10.4h6v2.8H5Z"/></symbol>
  <symbol id="crown" viewBox="0 0 16 16"><path d="M2.6 5.4 4.8 8l3.2-4 3.2 4 2.2-2.6-1 6.2H3.6Z"/></symbol>
  <symbol id="list" viewBox="0 0 16 16"><path d="M3 4.5h10M3 8h10M3 11.5h10"/></symbol>
</svg>
